<?xml version="1.0" standalone="no"?>
<!DOCTYPE svg PUBLIC "-//W3C//DTD SVG 20010904//EN"
 "http://www.w3.org/TR/2001/REC-SVG-20010904/DTD/svg10.dtd">
<svg version="1.0" xmlns="http://www.w3.org/2000/svg"
 width="64.000000pt" height="64.000000pt" viewBox="0 0 64.000000 64.000000"
 preserveAspectRatio="xMidYMid meet">
<metadata>
Created by potrace 1.11, written by Peter Selinger 2001-2013
</metadata>
<g transform="translate(0.000000,64.000000) scale(0.100000,-0.100000)"
fill="#000000" stroke="none">
<path d="M109 608 c-7 -14 -9 -39 -4 -72 25 -173 24 -167 19 -91 -2 39 -7 86
-10 105 -3 22 0 42 9 54 23 31 51 6 71 -65 9 -34 18 -60 21 -58 5 6 -26 123
-37 137 -17 20 -56 14 -69 -10z"/>
<path d="M462 608 c-11 -14 -42 -131 -37 -137 3 -2 12 24 21 58 20 71 48 96
71 65 9 -12 12 -32 9 -54 -3 -19 -8 -66 -10 -105 -5 -76 -6 -82 19 91 9 61 -5
94 -39 94 -13 0 -28 -6 -34 -12z"/>
<path d="M483 221 c-7 -22 -13 -63 -13 -90 0 -57 -7 -81 -24 -81 -15 0 -59 46
-80 85 -15 26 -16 27 -10 5 9 -35 52 -89 81 -103 34 -15 43 2 43 86 0 38 5 77
11 88 5 11 9 27 7 35 -2 9 -9 -3 -15 -25z"/>
<path d="M136 235 c21 -67 25 -91 21 -114 -7 -36 3 -82 20 -88 15 -6 68 39 85
72 6 11 -5 3 -25 -17 -52 -57 -67 -51 -67 25 0 41 -7 75 -20 102 -11 22 -18
31 -14 20z"/>
</g>
</svg>
