<?xml version="1.0" standalone="no"?>
<!DOCTYPE svg PUBLIC "-//W3C//DTD SVG 20010904//EN"
 "http://www.w3.org/TR/2001/REC-SVG-20010904/DTD/svg10.dtd">
<svg version="1.0" xmlns="http://www.w3.org/2000/svg"
 width="188.000000pt" height="188.000000pt" viewBox="0 0 188.000000 188.000000"
 preserveAspectRatio="xMidYMid meet">
<metadata>
Created by potrace 1.11, written by Peter Selinger 2001-2013
</metadata>
<g transform="translate(0.000000,188.000000) scale(0.100000,-0.100000)"
fill="#000000" stroke="none">
<path d="M394 1830 c-32 -12 -72 -66 -85 -113 -15 -54 -6 -135 27 -267 17 -67
29 -152 34 -236 9 -138 22 -186 61 -219 l24 -20 -23 26 c-33 38 -42 81 -42
212 0 86 -6 148 -24 230 -35 165 -39 203 -26 258 12 51 55 99 88 99 24 0 78
-35 96 -63 9 -13 29 -77 46 -143 29 -116 102 -282 150 -344 11 -14 -5 25 -35
86 -36 71 -63 143 -76 200 -39 169 -50 207 -70 236 -33 45 -104 74 -145 58z"/>
<path d="M1426 1799 c-37 -10 -84 -55 -101 -96 -8 -18 -21 -70 -29 -116 -21
-112 -57 -213 -111 -316 -26 -47 -37 -75 -26 -61 53 66 122 222 155 349 39
148 60 185 116 202 33 10 43 9 65 -5 62 -41 70 -157 25 -341 -16 -64 -24 -128
-26 -220 -4 -167 -8 -186 -47 -225 -31 -31 -31 -32 -4 -15 48 31 60 68 68 205
4 85 17 167 38 256 19 82 31 157 31 200 -1 133 -64 209 -154 183z"/>
<path d="M459 787 c-19 -12 -40 -36 -48 -51 -14 -31 -16 -25 33 -161 24 -65
26 -82 24 -230 -1 -143 1 -165 20 -208 18 -40 25 -47 50 -47 48 0 159 96 223
194 41 62 79 168 78 215 0 15 -8 -3 -18 -41 -10 -36 -31 -88 -46 -115 -54 -92
-187 -213 -234 -213 -30 0 -41 55 -41 210 0 149 -14 224 -55 294 -40 69 -29
116 39 157 17 10 26 19 20 19 -6 0 -26 -10 -45 -23z"/>
<path d="M1386 791 c38 -23 64 -58 64 -87 0 -11 -11 -42 -24 -67 -45 -83 -56
-141 -56 -284 0 -129 -12 -217 -32 -229 -15 -9 -102 53 -165 119 -66 69 -97
121 -125 212 l-18 60 6 -50 c11 -92 65 -194 145 -274 106 -106 165 -127 196
-68 14 26 18 68 23 227 5 176 8 200 29 245 37 81 42 104 27 140 -12 29 -69 75
-92 75 -5 0 5 -9 22 -19z"/>
<path d="M842 550 c0 -14 2 -19 5 -12 2 6 2 18 0 25 -3 6 -5 1 -5 -13z"/>
<path d="M1022 540 c0 -14 2 -19 5 -12 2 6 2 18 0 25 -3 6 -5 1 -5 -13z"/>
</g>
</svg>
