<?xml version="1.0" standalone="no"?>
<!DOCTYPE svg PUBLIC "-//W3C//DTD SVG 20010904//EN"
 "http://www.w3.org/TR/2001/REC-SVG-20010904/DTD/svg10.dtd">
<svg version="1.0" xmlns="http://www.w3.org/2000/svg"
 width="64.000000pt" height="64.000000pt" viewBox="0 0 64.000000 64.000000"
 preserveAspectRatio="xMidYMid meet">
<metadata>
Created by potrace 1.11, written by Peter Selinger 2001-2013
</metadata>
<g transform="translate(0.000000,64.000000) scale(0.100000,-0.100000)"
fill="#000000" stroke="none">
<path d="M118 630 c-25 -15 -30 -60 -14 -130 9 -36 16 -82 16 -102 0 -41 28
-78 58 -78 12 1 10 5 -9 15 -23 12 -27 22 -33 82 -3 37 -9 94 -12 125 -5 49
-4 59 11 64 23 9 40 -13 54 -71 12 -48 78 -171 88 -162 2 3 -9 32 -26 64 -16
33 -36 86 -45 119 -20 75 -47 98 -88 74z"/>
<path d="M461 611 c-10 -10 -22 -38 -26 -62 -4 -24 -20 -70 -36 -101 -16 -32
-29 -63 -29 -70 1 -26 63 88 84 151 17 52 25 66 41 66 17 0 20 -6 19 -50 -1
-27 -5 -85 -9 -128 -7 -72 -10 -79 -36 -93 -37 -18 -37 -27 -2 -13 43 16 53
29 53 70 0 21 7 68 16 105 17 74 12 119 -16 134 -27 14 -37 13 -59 -9z"/>
<path d="M151 274 c-19 -14 -22 -22 -16 -48 3 -17 9 -66 13 -108 8 -91 20
-108 56 -85 41 27 75 80 87 136 6 29 8 55 5 58 -6 6 -7 4 -26 -67 -12 -44 -74
-119 -88 -106 -4 4 -10 40 -14 79 -3 40 -9 84 -13 99 -7 25 -4 30 26 43 25 10
28 14 14 15 -11 0 -31 -7 -44 -16z"/>
<path d="M458 270 c36 -22 37 -25 17 -60 -8 -15 -14 -53 -15 -92 0 -38 -4 -68
-9 -68 -16 0 -80 79 -87 107 -14 66 -24 79 -19 25 5 -61 32 -112 77 -143 27
-20 31 -20 46 -5 11 11 16 32 15 72 -1 31 5 74 13 96 19 55 -1 88 -54 88 -11
0 -5 -8 16 -20z"/>
</g>
</svg>
