<?xml version="1.0" standalone="no"?>
<!DOCTYPE svg PUBLIC "-//W3C//DTD SVG 20010904//EN"
 "http://www.w3.org/TR/2001/REC-SVG-20010904/DTD/svg10.dtd">
<svg version="1.0" xmlns="http://www.w3.org/2000/svg"
 width="657.000000pt" height="657.000000pt" viewBox="0 0 657.000000 657.000000"
 preserveAspectRatio="xMidYMid meet">
<metadata>
Created by potrace 1.11, written by Peter Selinger 2001-2013
</metadata>
<g transform="translate(0.000000,657.000000) scale(0.100000,-0.100000)"
fill="#000000" stroke="none">
<path d="M1270 6545 c-68 -19 -105 -41 -171 -102 -101 -94 -171 -238 -200
-410 -11 -68 -15 -302 -6 -358 3 -16 8 -50 12 -75 4 -25 9 -58 11 -75 12 -77
40 -195 83 -360 66 -246 113 -454 125 -550 8 -62 18 -131 23 -160 3 -16 7
-149 8 -295 1 -146 5 -285 9 -310 30 -195 56 -271 126 -361 76 -100 210 -183
405 -254 97 -35 317 -97 323 -91 1 2 -84 38 -190 82 -191 77 -315 142 -393
204 -83 66 -158 198 -170 301 -3 19 -7 52 -11 74 -4 22 -5 98 -4 170 9 365 3
660 -15 725 -2 8 -6 35 -9 60 -7 53 -15 99 -21 120 -2 8 -7 31 -10 50 -3 19
-17 78 -30 130 -13 52 -26 106 -29 120 -3 14 -18 89 -35 167 -16 78 -33 168
-37 200 -3 32 -8 60 -9 63 -6 10 -18 171 -19 235 0 240 99 454 240 516 142 63
351 -35 451 -211 46 -82 97 -243 138 -445 77 -374 192 -689 367 -1003 35 -63
254 -420 447 -727 69 -110 140 -227 158 -260 20 -37 33 -52 33 -40 0 12 -8 36
-18 55 -116 221 -170 322 -192 360 -14 25 -34 61 -43 80 -10 19 -26 49 -36 65
-61 103 -214 390 -277 519 -154 313 -264 645 -299 896 -3 19 -7 46 -10 60 -3
14 -8 43 -11 65 -10 72 -52 248 -74 315 -57 165 -156 303 -275 378 -110 70
-269 103 -365 77z"/>
<path d="M5115 6435 c-166 -35 -325 -156 -400 -305 -70 -139 -110 -280 -145
-510 -41 -268 -124 -555 -233 -805 -52 -120 -138 -286 -344 -665 -305 -562
-302 -555 -121 -285 400 596 594 947 707 1282 28 82 91 324 105 399 42 234
102 423 165 521 103 160 301 242 439 183 136 -59 236 -272 236 -505 0 -62 -13
-235 -18 -244 -2 -3 -6 -28 -10 -56 -6 -57 -60 -324 -75 -372 -5 -18 -8 -33
-6 -33 3 0 0 -11 -5 -24 -5 -13 -16 -59 -25 -103 -9 -43 -19 -87 -21 -98 -28
-134 -50 -283 -61 -407 -7 -83 -7 -130 1 -503 5 -236 -6 -315 -58 -421 -36
-73 -101 -150 -166 -197 -31 -23 -176 -98 -270 -140 -77 -35 -183 -77 -192
-77 -17 0 -108 -42 -108 -50 0 -10 55 4 125 30 28 11 86 30 130 43 109 33 242
88 323 133 77 43 176 137 216 207 36 62 71 166 81 242 4 33 9 71 12 85 2 14 5
142 8 285 7 402 12 441 140 955 75 299 98 408 110 515 3 28 8 63 11 80 7 42 7
241 0 295 -26 189 -124 389 -232 474 -85 67 -207 94 -319 71z"/>
<path d="M1960 2854 c-271 -70 -476 -156 -569 -240 -91 -82 -138 -197 -127
-310 8 -81 26 -136 86 -254 64 -127 118 -282 136 -390 3 -14 7 -31 9 -37 19
-56 24 -340 10 -558 -11 -162 -12 -450 -3 -530 10 -82 16 -108 40 -195 59
-214 122 -291 240 -293 172 -3 628 393 850 738 159 247 254 526 293 860 5 45
21 159 30 218 2 12 6 43 9 68 9 65 45 247 62 314 25 96 1 74 -31 -28 -23 -78
-68 -253 -79 -307 -30 -159 -116 -520 -146 -610 -84 -257 -219 -462 -469 -710
-167 -167 -310 -279 -441 -345 -88 -45 -116 -31 -149 71 -65 204 -66 213 -62
869 1 138 0 266 -3 285 -11 74 -26 176 -32 210 -13 75 -77 248 -125 339 -126
235 -140 272 -133 352 9 104 66 182 193 264 82 53 136 77 354 161 93 35 176
68 185 74 30 17 -26 10 -128 -16z"/>
<path d="M4480 2842 c19 -8 40 -17 45 -18 6 -2 42 -15 80 -29 432 -159 594
-323 523 -534 -10 -29 -48 -110 -85 -180 -98 -182 -144 -308 -173 -466 -24
-134 -24 -151 -21 -770 1 -126 0 -240 -3 -252 -3 -12 -7 -48 -11 -79 -3 -32
-8 -60 -10 -64 -2 -4 -6 -17 -8 -31 -20 -108 -63 -195 -99 -201 -42 -7 -204
89 -348 206 -74 61 -258 239 -315 306 -95 111 -194 265 -260 405 -67 141 -111
286 -160 524 -54 269 -56 274 -117 496 -46 164 -64 212 -75 202 -2 -2 1 -17 7
-33 11 -27 34 -128 45 -196 3 -18 12 -73 21 -123 8 -49 19 -117 24 -150 13
-88 20 -128 24 -150 2 -11 9 -60 16 -110 59 -440 184 -721 464 -1049 224 -263
521 -489 658 -500 52 -5 119 21 150 57 51 58 104 197 122 322 4 22 8 47 11 55
17 59 21 305 8 500 -18 294 -10 570 23 720 15 70 43 149 81 234 107 238 123
278 132 333 24 156 -45 295 -197 397 -97 64 -282 135 -458 175 -109 25 -144
26 -94 3z"/>
</g>
</svg>
